<?xml version="1.0" standalone="no"?>
<!DOCTYPE svg PUBLIC "-//W3C//DTD SVG 20010904//EN"
 "http://www.w3.org/TR/2001/REC-SVG-20010904/DTD/svg10.dtd">
<svg version="1.0" xmlns="http://www.w3.org/2000/svg"
 width="1408.000000pt" height="1408.000000pt" viewBox="0 0 1408.000000 1408.000000"
 preserveAspectRatio="xMidYMid meet">
<metadata>
Created by potrace 1.14, written by Peter Selinger 2001-2017
</metadata>
<g transform="translate(0.000000,1408.000000) scale(0.100000,-0.100000)"
fill="#000000" stroke="none">
<path d="M8185 11505 c-33 -7 -81 -22 -108 -34 -26 -11 -49 -20 -52 -21 -17 0
-120 -81 -172 -136 -65 -67 -137 -196 -148 -263 -3 -19 -9 -39 -12 -44 -3 -6
-7 -34 -8 -64 -2 -30 -5 -57 -8 -60 -4 -3 -2 -14 3 -24 7 -12 7 -20 0 -24 -6
-4 -7 -13 -1 -24 6 -10 6 -23 1 -31 -5 -8 -5 -19 0 -25 5 -6 5 -17 0 -25 -4
-7 -4 -24 0 -36 6 -14 5 -26 0 -29 -7 -4 -6 -13 0 -25 6 -12 7 -21 0 -25 -6
-4 -6 -15 0 -30 6 -16 6 -25 0 -25 -6 0 -6 -9 0 -25 5 -14 6 -25 2 -25 -4 0
-7 -16 -7 -35 0 -19 3 -35 7 -35 4 0 3 -11 -2 -25 -6 -16 -6 -25 0 -25 6 0 6
-9 0 -25 -6 -15 -6 -27 0 -30 6 -3 6 -15 0 -30 -6 -16 -6 -25 0 -25 6 0 6 -9
1 -22 -5 -13 -5 -33 0 -45 5 -13 4 -25 -1 -28 -7 -4 -6 -13 0 -25 6 -12 7 -21
0 -25 -6 -4 -6 -15 0 -30 6 -16 6 -25 0 -25 -6 0 -6 -9 0 -25 5 -14 6 -25 2
-25 -4 0 -7 -16 -7 -35 0 -19 3 -35 7 -35 4 0 3 -11 -2 -25 -6 -16 -6 -25 0
-25 6 0 6 -9 0 -25 -6 -15 -6 -27 0 -30 6 -3 6 -15 0 -30 -6 -16 -6 -25 0 -25
6 0 6 -9 1 -22 -5 -13 -5 -33 0 -45 5 -13 4 -25 -1 -28 -7 -4 -6 -13 0 -25 6
-12 7 -21 0 -25 -6 -4 -6 -15 0 -30 6 -16 6 -25 0 -25 -6 0 -6 -9 0 -25 5 -14
6 -25 2 -25 -4 0 -7 -16 -7 -35 0 -19 3 -35 7 -35 4 0 3 -11 -2 -25 -6 -16 -6
-25 0 -25 6 0 6 -9 0 -25 -6 -15 -6 -27 0 -30 6 -3 6 -15 0 -30 -6 -16 -6 -25
0 -25 6 0 6 -9 1 -22 -5 -13 -5 -33 0 -45 5 -13 4 -25 -1 -28 -7 -4 -6 -13 0
-25 6 -12 7 -21 0 -25 -6 -3 -6 -15 0 -29 5 -13 7 -26 4 -29 -8 -7 -9 -105 -2
-113 4 -3 3 -16 -2 -28 -4 -13 -4 -29 0 -36 5 -8 6 -18 3 -23 -8 -14 -9 -127
-1 -127 4 0 3 -11 -2 -25 -6 -15 -6 -27 0 -30 6 -3 6 -15 0 -30 -6 -16 -6 -25
0 -25 6 0 6 -9 1 -22 -5 -13 -5 -33 0 -45 5 -14 5 -23 -1 -23 -6 0 -6 -9 0
-25 6 -15 6 -27 0 -30 -6 -3 -6 -15 0 -30 6 -16 6 -25 0 -25 -6 0 -6 -9 0 -24
5 -13 6 -27 3 -30 -9 -9 -9 -66 -1 -66 4 0 3 -11 -2 -25 -6 -16 -6 -25 0 -25
6 0 6 -9 0 -25 -6 -15 -6 -27 0 -30 6 -3 6 -15 0 -30 -6 -16 -6 -25 0 -25 6 0
6 -9 1 -22 -5 -13 -5 -33 0 -45 5 -14 5 -23 -1 -23 -6 0 -6 -9 0 -25 6 -15 6
-27 0 -30 -6 -3 -6 -15 0 -30 6 -16 6 -25 0 -25 -6 0 -6 -9 0 -24 5 -13 6 -27
3 -30 -9 -9 -9 -66 -1 -66 4 0 3 -11 -2 -25 -6 -16 -6 -25 0 -25 6 0 6 -9 1
-23 -5 -14 -5 -30 0 -40 6 -9 6 -17 2 -17 -9 0 -9 -117 0 -126 3 -3 1 -19 -3
-35 -5 -17 -5 -31 1 -34 5 -4 5 -14 -1 -25 -6 -12 -7 -21 0 -25 6 -4 6 -15 0
-30 -6 -16 -6 -25 0 -25 6 0 6 -9 0 -25 -6 -16 -6 -25 0 -25 6 0 6 -9 0 -25
-6 -16 -6 -25 0 -25 6 0 6 -9 0 -25 -6 -15 -6 -27 0 -30 6 -3 6 -15 0 -30 -6
-16 -6 -25 0 -25 6 0 6 -9 1 -22 -5 -13 -5 -33 0 -45 5 -14 5 -23 -1 -23 -6 0
-6 -9 0 -25 6 -15 6 -27 0 -30 -6 -3 -6 -15 0 -30 6 -16 6 -25 0 -25 -6 0 -6
-9 0 -24 5 -13 6 -27 3 -30 -9 -9 -9 -66 -1 -66 4 0 3 -11 -2 -25 -6 -16 -6
-25 0 -25 6 0 6 -9 0 -25 -6 -15 -6 -27 0 -30 6 -3 6 -15 0 -30 -6 -16 -6 -25
0 -25 6 0 6 -9 1 -22 -5 -13 -5 -33 0 -45 5 -14 5 -23 -1 -23 -6 0 -6 -9 0
-25 6 -15 6 -27 0 -30 -6 -3 -6 -15 0 -30 6 -16 6 -25 0 -25 -6 0 -6 -9 0 -24
5 -13 6 -27 3 -30 -9 -9 -9 -66 -1 -66 4 0 3 -11 -2 -25 -6 -16 -6 -25 0 -25
6 0 6 -9 0 -25 -6 -15 -6 -25 0 -25 5 0 5 -12 0 -30 -5 -18 -5 -30 0 -30 6 0
6 -10 0 -25 -6 -16 -6 -25 0 -25 6 0 6 -9 0 -25 -6 -15 -6 -27 0 -30 6 -3 6
-15 0 -30 -6 -16 -6 -25 0 -25 6 0 6 -9 1 -22 -5 -13 -5 -33 0 -45 5 -13 4
-25 -1 -28 -7 -4 -6 -13 0 -25 7 -13 7 -21 0 -25 -6 -4 -8 -11 -5 -16 8 -12
12 -89 5 -89 -7 0 -5 -59 3 -66 3 -4 2 -14 -3 -24 -5 -10 -7 -20 -3 -23 3 -3
7 -30 9 -59 9 -145 72 -276 186 -390 86 -86 192 -145 305 -172 115 -26 318 -8
398 37 11 6 22 11 25 12 14 1 114 69 150 101 45 41 128 147 141 182 9 23 28
29 45 13 34 -33 352 -186 416 -200 4 -1 24 -9 45 -17 20 -9 44 -17 52 -19 9
-2 48 -13 86 -25 82 -25 81 -24 165 -40 36 -7 72 -15 80 -18 8 -2 33 -7 55 -9
22 -2 46 -6 53 -8 21 -7 169 -19 249 -19 40 -1 73 -4 73 -7 0 -4 15 -3 34 1
22 5 39 3 45 -3 6 -6 11 -7 11 -2 0 6 28 10 63 10 34 0 91 3 127 7 36 4 88 10
115 13 28 4 58 8 68 11 10 3 32 8 50 11 60 9 72 11 72 13 0 1 11 3 25 6 56 10
266 74 330 101 8 3 17 7 20 8 3 1 22 9 44 18 21 9 40 17 43 17 6 0 230 112
262 131 94 55 301 198 337 233 6 6 40 36 75 66 137 119 243 235 363 395 72 95
216 326 206 329 -3 0 5 15 16 31 20 28 90 180 109 235 1 3 5 12 8 20 46 107
129 428 141 546 2 21 7 68 11 104 3 36 7 79 9 95 1 17 5 36 9 43 5 6 4 12 0
12 -9 0 -10 77 -1 86 4 3 2 19 -2 35 -5 17 -5 31 1 35 5 3 6 11 2 17 -4 6 -8
32 -9 57 -4 110 -7 149 -15 205 -5 33 -11 74 -13 90 -2 17 -12 66 -21 110 -10
44 -19 87 -19 95 -1 9 -5 20 -8 25 -3 6 -11 35 -18 65 -7 30 -16 60 -20 65 -4
6 -10 23 -14 39 -19 78 -126 319 -201 451 -69 123 -193 299 -298 422 -33 39
-199 203 -248 246 -120 102 -290 224 -389 278 -25 13 -47 26 -50 29 -18 21
-315 152 -405 179 -22 7 -49 16 -60 21 -41 19 -271 73 -360 86 -16 2 -57 8
-90 13 -33 5 -67 9 -75 10 -113 3 -189 9 -198 15 -7 4 -12 4 -12 -1 0 -4 -20
-8 -45 -8 -25 0 -45 4 -45 8 0 5 -5 5 -11 1 -7 -4 -39 -8 -73 -9 -68 -3 -198
-15 -230 -21 -12 -2 -34 -6 -51 -8 -124 -18 -398 -91 -495 -133 -8 -3 -17 -7
-20 -8 -3 -1 -22 -9 -44 -18 -21 -9 -40 -17 -43 -17 -11 0 -199 -96 -205 -105
-4 -5 -8 -6 -8 -1 0 5 -9 1 -19 -8 -10 -10 -21 -14 -24 -9 -6 9 -10 72 -7 88
1 6 2 13 1 17 0 4 -1 29 -1 55 0 27 0 64 -1 83 -1 19 -1 40 0 45 1 24 2 221 0
230 -1 6 -1 14 0 19 1 5 2 30 1 55 0 25 -1 55 0 66 0 11 0 38 -1 60 0 22 0 47
0 55 5 116 -4 303 -18 348 -5 18 -10 35 -10 37 -1 3 -2 7 -2 10 -1 3 -2 8 -3
13 -1 4 -10 24 -19 46 -9 21 -17 40 -17 42 0 2 -16 28 -36 57 -44 63 -134 157
-151 157 -7 0 -13 4 -13 10 0 16 -161 89 -231 103 -87 18 -200 19 -274 2z
m2032 -2550 c12 0 25 4 29 8 4 3 11 4 17 0 5 -3 42 -7 81 -9 59 -3 200 -29
269 -49 9 -3 25 -7 36 -9 10 -3 27 -9 37 -15 11 -5 48 -22 84 -37 230 -98 447
-296 582 -532 36 -63 78 -152 78 -165 0 -7 4 -17 8 -22 9 -11 48 -139 57 -190
3 -16 8 -46 12 -65 3 -19 6 -65 7 -102 1 -38 5 -68 9 -68 4 0 4 -8 -2 -17 -5
-10 -5 -26 0 -40 5 -13 5 -23 1 -23 -5 0 -8 -15 -7 -32 2 -46 -20 -173 -48
-274 -15 -54 -86 -226 -97 -234 -4 -3 -10 -13 -13 -23 -8 -21 -100 -157 -132
-196 -49 -58 -156 -158 -229 -212 -81 -60 -239 -146 -311 -169 -22 -7 -44 -16
-50 -20 -5 -4 -17 -8 -25 -8 -17 -1 -55 -9 -55 -13 0 -1 -9 -3 -20 -5 -11 -1
-31 -5 -45 -8 -63 -15 -125 -20 -245 -20 -141 0 -220 7 -274 23 -19 6 -37 9
-39 6 -3 -3 -10 0 -17 5 -6 5 -20 11 -31 13 -50 10 -87 23 -182 68 -56 26
-105 48 -109 48 -3 -1 -9 3 -12 8 -3 5 -33 28 -66 50 -116 78 -229 189 -323
318 -48 66 -142 243 -142 268 0 7 -4 17 -8 23 -10 11 -54 157 -58 193 -1 15
-5 37 -9 51 -11 43 -14 302 -4 370 13 92 48 226 75 288 13 29 23 53 24 55 0 1
3 12 6 25 4 12 10 22 15 22 5 0 8 3 7 8 -3 11 30 70 78 140 24 35 44 65 44 66
0 7 56 69 120 133 68 69 213 182 243 190 9 3 17 9 17 14 0 5 4 9 10 9 5 0 41
15 80 34 133 65 290 108 433 120 27 3 51 7 55 10 3 4 8 3 11 -1 3 -5 16 -8 28
-8z"/>
<path d="M3780 10243 c0 -4 -28 -8 -63 -9 -53 0 -147 -8 -237 -18 -14 -2 -74
-13 -135 -26 -135 -27 -140 -28 -140 -30 0 -1 -11 -4 -25 -6 -31 -6 -282 -91
-332 -112 -21 -9 -38 -20 -38 -24 0 -4 -7 -5 -15 -2 -8 4 -15 1 -15 -5 0 -6
-6 -11 -14 -11 -7 0 -49 -19 -92 -42 -44 -23 -89 -46 -101 -52 -13 -6 -23 -14
-23 -18 0 -5 -5 -8 -11 -8 -19 0 -272 -173 -315 -214 -6 -6 -29 -26 -51 -44
-99 -80 -262 -253 -360 -380 -68 -89 -76 -101 -113 -157 -11 -16 -24 -37 -30
-45 -49 -73 -160 -288 -160 -310 0 -6 -5 -10 -10 -10 -6 0 -9 -3 -8 -7 1 -5
-6 -25 -15 -47 -9 -21 -17 -44 -17 -50 0 -7 -4 -16 -9 -21 -11 -13 -83 -235
-96 -300 -2 -5 -10 -45 -20 -88 -9 -42 -15 -84 -12 -91 3 -8 2 -16 -3 -18 -5
-2 -12 -25 -15 -53 -3 -27 -7 -70 -10 -95 -5 -37 -15 -175 -16 -215 0 -5 1
-29 3 -53 2 -24 0 -46 -4 -48 -5 -3 -5 -10 -2 -16 4 -6 8 -43 10 -81 3 -77 13
-185 20 -220 3 -12 7 -35 9 -52 13 -114 88 -396 130 -490 8 -16 23 -55 36 -85
19 -49 94 -202 138 -285 23 -43 166 -256 188 -280 10 -12 34 -41 53 -65 81
-105 327 -350 350 -350 5 0 10 -4 12 -8 5 -15 178 -141 269 -197 94 -59 299
-165 324 -169 8 -1 21 -8 27 -14 7 -7 17 -12 24 -12 6 0 27 -6 45 -14 19 -8
37 -14 42 -15 4 0 21 -8 37 -16 16 -8 33 -15 37 -16 5 0 39 -9 77 -20 38 -11
76 -22 85 -24 9 -2 31 -8 49 -14 18 -5 35 -10 37 -10 3 0 18 -2 33 -5 38 -8
81 -15 122 -21 19 -3 44 -7 55 -10 42 -9 134 -17 230 -20 55 -2 100 -4 100 -5
0 -1 12 -3 28 -4 15 -1 27 1 27 4 0 3 35 5 78 6 116 1 276 18 377 41 17 4 38
8 48 9 9 1 18 2 20 4 3 2 35 9 67 14 14 2 37 9 53 15 15 6 38 13 50 16 12 2
49 14 82 25 33 12 65 23 70 24 46 9 403 178 415 196 3 4 15 11 28 15 19 5 25
3 29 -14 3 -12 9 -21 13 -21 4 0 13 -14 21 -32 11 -27 114 -138 162 -176 27
-20 117 -72 117 -66 0 2 13 -2 29 -10 42 -22 170 -48 236 -48 68 0 248 42 265
61 3 3 27 17 55 31 27 14 84 59 126 100 59 59 85 94 117 160 23 47 44 100 47
119 3 19 9 39 12 44 3 5 7 33 8 62 2 30 6 58 9 64 4 5 2 12 -3 16 -7 3 -7 15
-1 30 6 15 6 27 0 30 -7 4 -6 13 0 25 7 13 7 21 0 25 -6 4 -7 12 -1 23 5 9 5
26 0 39 -5 14 -5 23 1 23 6 0 6 9 0 25 -6 15 -6 27 0 30 6 3 6 15 0 30 -6 16
-6 25 0 25 6 0 6 9 0 25 -5 14 -6 25 -2 25 4 0 7 16 7 35 0 19 -3 35 -7 35 -4
0 -3 11 2 25 6 15 6 25 0 25 -5 0 -5 12 0 30 5 18 5 30 0 30 -6 0 -6 10 0 25
6 16 6 25 0 25 -6 0 -6 9 -1 23 5 12 5 32 0 45 -5 13 -5 22 1 22 6 0 6 9 0 25
-6 15 -6 27 0 30 6 3 6 15 0 30 -6 16 -6 25 0 25 6 0 6 9 0 25 -5 14 -6 25 -2
25 4 0 7 16 7 35 0 19 -3 35 -7 35 -4 0 -3 11 2 25 6 15 6 25 0 25 -5 0 -5 12
0 30 5 18 5 30 0 30 -6 0 -6 10 0 25 6 16 6 25 0 25 -6 0 -6 9 -1 23 5 12 5
32 0 45 -5 13 -5 22 1 22 6 0 6 9 0 25 -6 15 -6 27 0 30 6 3 6 15 0 30 -6 16
-6 25 0 25 6 0 6 9 0 25 -5 14 -6 25 -2 25 4 0 7 16 7 35 0 19 -3 35 -7 35 -4
0 -3 11 2 25 6 15 6 25 0 25 -5 0 -5 12 0 30 5 18 5 30 0 30 -6 0 -6 10 0 25
6 16 6 25 0 25 -5 0 -7 6 -5 13 8 20 11 177 3 177 -4 0 -3 14 2 30 5 19 5 30
-1 30 -6 0 -7 4 -4 10 9 15 12 80 3 80 -4 0 -3 11 2 24 5 15 5 27 -3 35 -6 6
-7 11 -1 11 10 0 12 46 1 56 -3 4 -2 15 3 25 7 11 7 20 0 24 -6 4 -6 15 0 30
6 16 6 25 0 25 -6 0 -6 9 0 25 6 15 6 26 0 30 -7 4 -6 13 0 25 6 12 7 21 0 25
-6 4 -6 15 0 30 6 16 6 25 0 25 -6 0 -6 9 0 25 6 15 6 26 0 30 -7 4 -6 13 0
25 6 12 7 21 0 25 -6 4 -6 15 0 30 6 16 6 25 0 25 -6 0 -6 9 0 25 6 15 6 26 0
30 -7 4 -6 13 0 25 6 12 7 21 0 25 -6 4 -6 15 0 30 6 16 6 25 0 25 -6 0 -6 9
0 25 6 15 6 26 0 30 -7 4 -6 13 0 25 6 12 7 21 0 25 -6 4 -6 15 0 30 6 16 6
25 0 25 -6 0 -6 9 0 25 6 15 6 26 0 30 -7 4 -6 13 0 25 6 12 7 21 0 25 -6 4
-6 15 0 30 6 16 6 25 0 25 -6 0 -6 9 0 25 6 15 6 26 0 30 -7 4 -6 13 0 25 6
12 7 21 0 25 -6 4 -6 15 0 30 6 16 6 25 0 25 -6 0 -6 9 0 25 6 15 6 26 0 30
-7 4 -6 13 0 25 6 12 7 21 0 25 -6 4 -6 15 0 30 6 16 6 25 0 25 -6 0 -6 9 0
25 6 15 6 26 0 30 -7 4 -6 13 0 25 6 12 7 21 0 25 -6 4 -6 15 0 30 6 16 6 25
0 25 -6 0 -6 9 0 25 6 15 6 26 0 30 -7 4 -6 13 0 25 6 12 7 21 0 25 -6 4 -6
15 0 30 6 16 6 25 0 25 -6 0 -6 9 0 25 6 15 6 26 0 30 -7 4 -6 13 0 25 6 12 7
21 0 25 -6 4 -6 15 0 30 6 16 6 25 0 25 -6 0 -6 9 0 25 6 15 6 26 0 30 -7 4
-7 13 0 24 5 10 7 20 5 23 -3 2 -7 34 -10 71 -18 238 -196 462 -430 542 -62
21 -98 28 -152 29 -24 1 -43 5 -43 9 0 5 -4 6 -10 2 -8 -5 -74 -14 -137 -18
-13 0 -23 -4 -23 -7 0 -3 -10 -7 -22 -7 -34 -3 -178 -78 -218 -113 -19 -18
-39 -35 -45 -38 -21 -13 -115 -143 -121 -168 -8 -30 -11 -30 -76 5 -82 44
-222 117 -230 120 -13 3 -82 31 -103 41 -29 14 -223 79 -248 84 -12 3 -60 14
-106 26 -47 12 -96 23 -110 25 -29 4 -94 15 -122 20 -32 6 -172 18 -234 19
-33 1 -66 5 -73 10 -6 4 -12 3 -12 -1 0 -9 -74 -8 -90 2 -6 3 -10 3 -10 -2z
m96 -1283 c12 5 24 6 27 4 3 -3 27 -7 54 -10 163 -13 305 -55 463 -134 75 -38
183 -108 188 -121 2 -5 8 -9 13 -9 9 0 64 -46 114 -95 86 -86 196 -231 227
-301 7 -16 15 -31 19 -34 6 -5 69 -156 74 -175 1 -5 4 -17 7 -25 13 -35 31
-107 35 -140 3 -19 8 -54 13 -77 11 -63 5 -320 -10 -388 -7 -33 -13 -64 -15
-70 -12 -60 -55 -185 -79 -230 -6 -11 -11 -22 -12 -25 -1 -3 -5 -15 -9 -27 -4
-13 -11 -23 -16 -23 -5 0 -9 -6 -9 -12 0 -14 -100 -166 -140 -212 -56 -65
-149 -152 -224 -207 -81 -60 -239 -146 -311 -169 -22 -7 -44 -16 -50 -20 -5
-4 -17 -8 -25 -8 -17 -1 -55 -9 -55 -13 0 -1 -9 -3 -20 -5 -11 -1 -31 -5 -45
-8 -63 -15 -125 -20 -245 -20 -141 0 -220 7 -274 23 -19 6 -37 9 -39 6 -3 -3
-10 0 -17 5 -6 5 -20 11 -31 13 -50 10 -87 23 -182 68 -56 26 -105 48 -109 48
-3 -1 -9 3 -12 8 -3 5 -33 28 -66 50 -156 105 -289 251 -387 421 -36 63 -78
152 -78 165 0 7 -4 17 -8 23 -9 10 -48 138 -57 189 -3 17 -8 46 -11 65 -4 19
-7 65 -8 102 0 38 -5 68 -9 68 -4 0 -3 8 2 18 6 11 6 24 0 35 -6 9 -6 17 -2
17 4 0 8 19 9 43 2 67 13 147 30 207 8 30 16 60 18 65 6 26 18 62 26 80 4 11
16 41 27 67 10 27 21 48 26 48 4 0 7 7 7 15 0 13 65 127 90 158 131 164 180
214 285 292 22 17 42 33 43 38 2 4 10 7 17 7 8 0 20 7 28 15 13 12 214 116
220 113 1 -1 32 9 68 21 36 12 76 24 90 26 109 22 152 28 206 29 35 2 66 6 69
9 4 4 14 3 22 -2 9 -5 26 -5 38 -1z"/>
<path d="M627 5124 c-4 -4 -28 -8 -55 -10 -72 -3 -128 -20 -222 -67 -132 -65
-241 -181 -298 -317 -50 -120 -52 -144 -49 -605 2 -236 7 -443 10 -460 28
-138 48 -208 71 -252 9 -18 14 -33 12 -33 -17 0 120 -231 189 -320 31 -39 225
-230 234 -230 4 0 21 -11 37 -25 16 -14 32 -25 36 -25 4 0 13 -6 20 -12 42
-39 271 -146 350 -164 10 -2 28 -7 41 -10 137 -34 26 -33 6037 -33 3311 0
5877 4 5905 9 28 5 68 12 90 15 53 9 197 54 213 67 6 6 12 8 12 5 0 -17 242
125 320 188 57 46 208 204 240 250 18 28 37 52 40 55 9 7 83 137 104 183 25
54 67 168 71 192 2 11 8 34 13 52 6 17 8 34 4 37 -3 3 -1 6 4 6 14 0 14 14 19
490 4 378 3 454 -10 505 -9 33 -17 65 -18 71 -2 7 -20 46 -41 89 -93 188 -315
335 -513 339 -24 1 -43 4 -43 8 0 4 -11 3 -24 -2 -15 -5 -27 -5 -35 3 -6 6
-11 7 -11 2 0 -9 -21 -14 -77 -18 -13 0 -23 -4 -23 -7 0 -3 -10 -7 -22 -7 -52
-4 -188 -84 -256 -151 -68 -66 -132 -153 -132 -179 0 -7 -3 -13 -8 -13 -14 0
-53 -145 -58 -216 -2 -38 -6 -75 -9 -81 -2 -7 0 -13 5 -13 5 0 5 -13 0 -30 -5
-17 -5 -30 0 -30 5 0 5 -13 0 -30 -5 -17 -5 -30 0 -30 5 0 5 -13 0 -30 -5 -17
-5 -30 0 -30 5 0 5 -13 0 -30 -5 -16 -6 -30 -2 -30 8 0 7 -68 -1 -76 -3 -3 -2
-17 3 -30 6 -14 6 -24 0 -24 -5 0 -5 -12 0 -30 5 -17 5 -30 0 -30 -5 0 -5 -13
0 -30 5 -17 5 -30 0 -30 -5 0 -5 -13 0 -30 5 -19 5 -30 -1 -30 -6 0 -7 -5 -4
-11 11 -17 -25 -50 -44 -39 -10 5 -23 5 -31 0 -8 -5 -21 -5 -30 0 -9 5 -22 5
-30 0 -8 -5 -18 -6 -23 -3 -12 7 -2106 7 -2114 0 -3 -4 -14 -2 -24 3 -11 7
-20 7 -24 0 -3 -6 -15 -6 -30 0 -15 6 -27 6 -30 0 -3 -6 -15 -6 -30 0 -15 6
-25 6 -25 0 0 -5 -12 -5 -28 -1 -15 5 -37 5 -49 0 -13 -5 -25 -4 -28 1 -3 6
-15 6 -30 0 -15 -6 -27 -6 -30 0 -3 6 -15 6 -30 0 -15 -6 -27 -6 -30 0 -3 6
-15 6 -30 0 -15 -6 -27 -6 -30 0 -3 6 -15 6 -30 0 -15 -6 -27 -6 -30 0 -3 6
-15 6 -30 0 -15 -6 -27 -6 -30 0 -3 6 -15 6 -30 0 -15 -6 -27 -6 -30 0 -3 6
-15 6 -30 0 -15 -6 -27 -6 -30 0 -3 6 -15 6 -30 0 -15 -6 -27 -6 -30 0 -3 6
-15 6 -30 0 -15 -6 -27 -6 -30 0 -3 6 -15 6 -30 0 -15 -6 -27 -6 -30 0 -3 6
-15 6 -30 0 -15 -6 -27 -6 -30 0 -3 6 -15 6 -30 0 -15 -6 -27 -6 -30 0 -3 6
-15 6 -30 0 -15 -6 -27 -6 -30 0 -3 6 -15 6 -30 0 -15 -6 -27 -6 -30 0 -3 6
-15 6 -30 0 -15 -6 -27 -6 -30 0 -3 6 -15 6 -30 0 -15 -6 -27 -6 -30 0 -3 6
-15 6 -30 0 -15 -6 -27 -6 -30 0 -3 6 -15 6 -30 0 -15 -6 -27 -6 -30 0 -3 6
-15 6 -30 0 -15 -6 -27 -6 -30 0 -3 6 -15 6 -30 0 -15 -6 -27 -6 -30 0 -3 6
-15 6 -30 0 -15 -6 -27 -6 -30 0 -3 6 -15 6 -30 0 -15 -6 -27 -6 -30 0 -3 6
-15 6 -30 0 -15 -6 -27 -6 -30 0 -3 6 -15 6 -30 0 -15 -6 -27 -6 -30 0 -3 6
-15 6 -30 0 -15 -6 -27 -6 -30 0 -3 6 -15 6 -30 0 -15 -6 -27 -6 -30 0 -3 6
-15 6 -30 0 -15 -6 -27 -6 -30 0 -3 6 -15 6 -30 0 -15 -6 -27 -6 -30 0 -3 6
-15 6 -30 0 -15 -6 -27 -6 -30 0 -3 6 -15 6 -30 0 -15 -6 -27 -6 -30 0 -3 6
-15 6 -30 0 -15 -6 -27 -6 -30 0 -3 6 -15 6 -30 0 -15 -6 -27 -6 -30 0 -3 6
-15 6 -30 0 -15 -6 -27 -6 -30 0 -3 6 -15 6 -30 0 -15 -6 -27 -6 -30 0 -3 6
-15 6 -30 0 -15 -6 -27 -6 -30 0 -3 6 -15 6 -30 0 -15 -6 -27 -6 -30 0 -3 6
-15 6 -30 0 -15 -6 -27 -6 -30 0 -3 6 -15 6 -30 0 -15 -6 -27 -6 -30 0 -3 6
-15 6 -30 0 -15 -6 -27 -6 -30 0 -3 6 -15 6 -30 0 -15 -6 -27 -6 -30 0 -3 6
-15 6 -30 0 -15 -6 -27 -6 -30 0 -3 6 -15 6 -30 0 -15 -6 -27 -6 -30 0 -3 6
-15 6 -30 0 -15 -6 -27 -6 -30 0 -3 6 -15 6 -30 0 -15 -6 -27 -6 -30 0 -3 6
-15 6 -30 0 -15 -6 -27 -6 -30 0 -3 6 -15 6 -30 0 -15 -6 -27 -6 -30 0 -3 6
-15 6 -30 0 -15 -6 -27 -6 -30 0 -3 6 -15 6 -30 0 -15 -6 -27 -6 -30 0 -3 6
-15 6 -30 0 -15 -6 -27 -6 -30 0 -3 6 -15 6 -30 0 -15 -6 -27 -6 -30 0 -3 6
-15 6 -30 0 -15 -6 -27 -6 -30 0 -3 6 -15 6 -30 0 -15 -6 -27 -6 -30 0 -3 6
-15 6 -30 0 -15 -6 -27 -6 -30 0 -3 6 -15 6 -30 0 -15 -6 -27 -6 -30 0 -3 6
-15 6 -30 0 -15 -6 -27 -6 -30 0 -3 6 -15 6 -30 0 -15 -6 -27 -6 -30 0 -3 6
-15 6 -30 0 -15 -6 -27 -6 -30 0 -3 6 -15 6 -30 0 -15 -6 -27 -6 -30 0 -3 6
-15 6 -30 0 -15 -6 -27 -6 -30 0 -3 6 -15 6 -30 0 -15 -6 -27 -6 -30 0 -3 6
-15 6 -30 0 -15 -6 -27 -6 -30 0 -3 6 -15 6 -30 0 -15 -6 -27 -6 -30 0 -3 6
-15 6 -30 0 -15 -6 -27 -6 -30 0 -3 6 -15 6 -30 0 -15 -6 -27 -6 -30 0 -3 6
-15 6 -30 0 -15 -6 -27 -6 -30 0 -3 6 -15 6 -30 0 -15 -6 -27 -6 -30 0 -3 6
-15 6 -30 0 -15 -6 -27 -6 -30 0 -3 6 -15 6 -30 0 -15 -6 -27 -6 -30 0 -3 6
-15 6 -30 0 -15 -6 -27 -6 -30 0 -3 6 -15 6 -30 0 -15 -6 -27 -6 -30 0 -3 6
-15 6 -30 0 -15 -6 -27 -6 -30 0 -3 6 -15 6 -30 0 -15 -6 -27 -6 -30 0 -3 6
-15 6 -30 0 -15 -6 -27 -6 -30 0 -3 6 -15 6 -30 0 -15 -6 -27 -6 -30 0 -3 6
-15 6 -30 0 -15 -6 -27 -6 -30 0 -3 6 -15 6 -30 0 -15 -6 -27 -6 -30 0 -3 6
-15 6 -30 0 -15 -6 -27 -6 -30 0 -3 6 -15 6 -30 0 -15 -6 -27 -6 -30 0 -3 6
-15 6 -30 0 -15 -6 -27 -6 -30 0 -3 6 -15 6 -30 0 -15 -6 -27 -6 -30 0 -3 6
-15 6 -30 0 -15 -6 -27 -6 -30 0 -3 6 -15 6 -30 0 -15 -6 -27 -6 -30 0 -3 6
-15 6 -30 0 -15 -6 -27 -6 -30 0 -3 6 -15 6 -30 0 -15 -6 -27 -6 -30 0 -3 6
-15 6 -30 0 -15 -6 -27 -6 -30 0 -3 6 -15 6 -30 0 -15 -6 -27 -6 -30 0 -3 6
-15 6 -30 0 -15 -6 -27 -6 -30 0 -3 6 -15 6 -30 0 -15 -6 -27 -6 -30 0 -3 6
-15 6 -30 0 -15 -6 -27 -6 -30 0 -3 6 -15 6 -30 0 -15 -6 -27 -6 -30 0 -3 6
-15 6 -30 0 -15 -6 -27 -6 -30 0 -3 6 -15 6 -30 0 -15 -6 -27 -6 -30 0 -3 6
-15 6 -30 0 -15 -6 -27 -6 -30 0 -3 6 -15 6 -30 0 -15 -6 -27 -6 -30 0 -3 6
-15 6 -30 0 -15 -6 -27 -6 -30 0 -3 6 -15 6 -30 0 -15 -6 -27 -6 -30 0 -3 6
-15 6 -30 0 -15 -6 -27 -6 -30 0 -3 6 -15 6 -30 0 -15 -6 -27 -6 -30 0 -3 6
-15 6 -30 0 -15 -6 -27 -6 -30 0 -3 6 -15 6 -30 0 -15 -6 -27 -6 -30 0 -3 6
-15 6 -30 0 -15 -6 -27 -6 -30 0 -3 6 -15 6 -30 0 -15 -6 -27 -6 -30 0 -3 6
-15 6 -30 0 -15 -6 -27 -6 -30 0 -3 6 -15 6 -30 0 -15 -6 -27 -6 -30 0 -3 6
-15 6 -30 0 -15 -6 -27 -6 -30 0 -3 6 -15 6 -30 0 -15 -6 -27 -6 -30 0 -3 6
-15 6 -30 0 -15 -6 -27 -6 -30 0 -3 6 -15 6 -30 0 -15 -6 -27 -6 -30 0 -3 6
-15 6 -30 0 -15 -6 -27 -6 -30 0 -3 6 -15 6 -30 0 -15 -6 -27 -6 -30 0 -3 6
-15 6 -30 0 -15 -6 -27 -6 -30 0 -3 6 -15 6 -30 0 -15 -6 -27 -6 -30 0 -3 6
-15 6 -30 0 -15 -6 -27 -6 -30 0 -3 6 -15 6 -30 0 -15 -6 -27 -6 -30 0 -3 6
-15 6 -30 0 -15 -6 -27 -6 -30 0 -3 6 -15 6 -30 0 -15 -6 -27 -6 -30 0 -3 6
-15 6 -30 0 -15 -6 -27 -6 -30 0 -3 6 -15 6 -30 0 -15 -6 -27 -6 -30 0 -3 6
-15 6 -30 0 -15 -6 -27 -6 -30 0 -3 6 -15 6 -30 0 -15 -6 -27 -6 -30 0 -3 6
-15 6 -30 0 -15 -6 -27 -6 -30 0 -3 6 -15 6 -30 0 -15 -6 -27 -6 -30 0 -3 6
-15 6 -30 0 -15 -6 -27 -6 -30 0 -3 6 -15 6 -30 0 -15 -6 -27 -6 -30 0 -3 6
-15 6 -30 0 -15 -6 -27 -6 -30 0 -3 6 -15 6 -30 0 -15 -6 -27 -6 -30 0 -3 6
-15 6 -30 0 -15 -6 -27 -6 -30 0 -3 6 -15 6 -30 0 -15 -6 -27 -6 -30 0 -3 6
-15 6 -30 0 -15 -6 -27 -6 -30 0 -3 6 -15 6 -30 0 -15 -6 -27 -6 -30 0 -3 6
-15 6 -30 0 -15 -6 -27 -6 -30 0 -3 6 -15 6 -30 0 -15 -6 -27 -6 -30 0 -3 6
-15 6 -30 0 -15 -6 -27 -6 -30 0 -3 6 -15 6 -30 0 -15 -6 -27 -6 -30 0 -3 6
-15 6 -30 0 -15 -6 -27 -6 -30 0 -3 6 -15 6 -30 0 -15 -6 -27 -6 -30 0 -3 6
-15 6 -30 0 -15 -6 -27 -6 -30 0 -3 6 -15 6 -30 0 -15 -6 -27 -6 -30 0 -3 6
-15 6 -30 0 -15 -6 -27 -6 -30 0 -3 6 -15 6 -30 0 -15 -6 -27 -6 -30 0 -3 6
-15 6 -30 0 -14 -5 -27 -5 -30 0 -3 5 -18 5 -35 0 -18 -5 -30 -5 -30 0 0 6
-10 6 -25 0 -14 -5 -27 -5 -30 0 -3 5 -18 5 -35 0 -17 -5 -30 -5 -30 0 0 5
-13 5 -30 0 -16 -5 -30 -6 -30 -2 0 4 -16 7 -35 7 -19 0 -35 -3 -35 -7 0 -4
-13 -3 -30 2 -17 5 -30 5 -30 0 0 -5 -13 -5 -30 0 -17 5 -30 5 -30 0 0 -14
-61 8 -75 27 -7 10 -10 20 -7 23 9 7 9 70 0 70 -3 0 -3 14 2 30 5 17 5 30 0
30 -5 0 -5 13 0 30 5 17 5 30 0 30 -5 0 -5 13 0 30 5 17 5 30 0 30 -5 0 -5 13
0 30 5 17 5 30 0 30 -5 0 -5 13 0 30 5 17 5 30 0 30 -5 0 -5 13 0 30 5 17 5
30 0 30 -5 0 -5 13 0 30 5 17 5 30 0 30 -5 0 -5 13 0 30 5 17 6 30 2 30 -4 0
-7 28 -8 63 0 34 -3 78 -6 97 -30 181 -171 367 -340 449 -89 43 -178 68 -243
67 -22 -1 -43 2 -46 7 -3 4 -8 4 -12 1z"/>
</g>
</svg>
